<svg width="92" height="42" viewBox="0 0 92 42" fill="none" xmlns="http://www.w3.org/2000/svg"><path d="M57.86 38.815c-2.615 0-4.815-2.13-4.815-4.75 0-2.615 2.2-4.75 4.815-4.75 1.45 0 2.48.565 3.255 1.31l-.915.915a3.313 3.313 0 0 0-2.34-.925c-1.91 0-3.405 1.54-3.405 3.45 0 1.91 1.495 3.45 3.405 3.45 1.24 0 1.945-.5 2.395-.95.37-.37.615-.905.705-1.635h-3.105v-1.295h4.365c.045.23.07.51.07.81 0 .975-.265 2.175-1.125 3.035-.83.87-1.895 1.335-3.305 1.335zm11.185-3.055c0 1.76-1.355 3.055-3.015 3.055-1.66 0-3.015-1.295-3.015-3.055 0-1.77 1.355-3.055 3.015-3.055 1.665-.005 3.015 1.28 3.015 3.055zm-1.32 0c0-1.1-.785-1.855-1.695-1.855s-1.695.755-1.695 1.855c0 1.09.785 1.855 1.695 1.855.91-.005 1.695-.77 1.695-1.855zm8.075 0c0 1.76-1.355 3.055-3.015 3.055-1.66 0-3.015-1.295-3.015-3.055 0-1.77 1.355-3.055 3.015-3.055 1.66-.005 3.015 1.28 3.015 3.055zm-1.32 0c0-1.1-.785-1.855-1.695-1.855s-1.695.755-1.695 1.855c0 1.09.785 1.855 1.695 1.855.91-.005 1.695-.77 1.695-1.855zm7.905-2.875v5.49c0 2.26-1.33 3.185-2.905 3.185-1.48 0-2.375-.995-2.71-1.805l1.17-.485c.21.5.72 1.09 1.54 1.09 1.005 0 1.635-.625 1.635-1.795v-.44h-.045c-.3.37-.88.695-1.61.695-1.53 0-2.93-1.33-2.93-3.045 0-1.725 1.4-3.07 2.93-3.07.73 0 1.31.325 1.61.685h.045v-.5h1.27v-.005zm-1.18 2.885c0-1.075-.72-1.865-1.63-1.865-.925 0-1.7.79-1.7 1.865 0 1.065.775 1.84 1.7 1.84.91 0 1.63-.775 1.63-1.84zm3.535-6.125v8.985h-1.345v-8.985h1.345zm5.28 7.12l1.04.695c-.335.5-1.145 1.355-2.545 1.355-1.735 0-2.99-1.345-2.99-3.055 0-1.82 1.265-3.055 2.84-3.055 1.585 0 2.36 1.26 2.615 1.945l.14.345-4.09 1.69c.315.615.8.925 1.48.925.69 0 1.165-.335 1.51-.845zm-3.21-1.1l2.735-1.135c-.15-.38-.6-.65-1.135-.65-.685 0-1.63.605-1.6 1.785zM5.74 36.385c0 .735-.27 1.325-.81 1.775-.545.44-1.21.66-1.99.66-.695 0-1.31-.205-1.84-.61s-.9-.96-1.1-1.665l1.03-.42c.07.25.17.475.295.68.125.205.27.375.44.52a2 2 0 0 0 .555.34c.205.08.42.125.645.125.49 0 .895-.125 1.205-.38.31-.255.47-.59.47-1.015 0-.35-.13-.65-.385-.905-.24-.24-.695-.475-1.36-.705-.67-.24-1.09-.405-1.255-.49C.75 33.84.305 33.175.305 32.29c0-.615.245-1.145.74-1.58.5-.435 1.115-.655 1.84-.655.64 0 1.195.165 1.665.49.47.32.78.725.935 1.205l-1.01.42a1.53 1.53 0 0 0-.555-.78c-.275-.205-.615-.31-1.015-.31-.42 0-.775.115-1.065.35-.29.22-.435.5-.435.85 0 .29.115.535.34.745.25.21.795.46 1.63.745.85.29 1.46.645 1.82 1.065.365.425.545.94.545 1.55zM8.98 32.7c.795 0 1.425.215 1.885.64.46.425.69 1.01.69 1.75v3.54h-1.03v-.795h-.045c-.445.655-1.04.985-1.78.985-.635 0-1.16-.19-1.59-.565a1.801 1.801 0 0 1-.64-1.405c0-.595.225-1.065.675-1.42.45-.35 1.05-.525 1.8-.525.64 0 1.17.115 1.58.35v-.245c0-.375-.15-.695-.445-.955a1.537 1.537 0 0 0-1.045-.395c-.6 0-1.08.255-1.43.76l-.95-.6c.53-.745 1.305-1.12 2.325-1.12zm-1.395 4.17c0 .28.12.515.355.705.24.19.515.28.84.28.455 0 .855-.17 1.215-.505.355-.335.535-.73.535-1.185-.335-.265-.805-.4-1.405-.4-.44 0-.805.105-1.095.315-.295.215-.445.48-.445.79zm7.615-6.725c.39 0 .71.065.96.2l-.295.95a1.38 1.38 0 0 0-.635-.14.832.832 0 0 0-.65.275c-.17.185-.25.43-.25.73v.725h1.5v.985h-1.5v4.76h-1.08v-4.76h-1.08v-.985h1.08v-.83c0-.57.18-1.03.545-1.385.365-.35.835-.525 1.405-.525zm3.965 8.67c-.845 0-1.54-.29-2.085-.865-.545-.575-.82-1.31-.82-2.19 0-.875.265-1.605.795-2.185.53-.58 1.21-.875 2.04-.875.85 0 1.53.275 2.035.825.505.55.755 1.32.755 2.315l-.01.115h-4.51c.015.565.205 1.015.56 1.36.36.345.79.515 1.29.515.685 0 1.225-.345 1.615-1.03l.96.47c-.26.485-.615.865-1.07 1.135-.46.275-.975.41-1.555.41zm-1.72-3.75h3.295c-.03-.4-.195-.73-.485-.99-.295-.26-.685-.395-1.18-.395-.405 0-.755.125-1.05.375-.295.255-.49.59-.58 1.01zm6.44 3.565h-1.08v-5.745h1.03v.935h.045c.11-.305.335-.565.675-.78.34-.215.675-.32 1-.32.31 0 .58.045.795.14l-.33 1.045c-.135-.055-.345-.08-.635-.08-.405 0-.76.165-1.06.49-.3.33-.45.71-.45 1.15v3.165h.01zm13.885-5.745l-1.85 5.74h-1.1l-1.43-4.405-1.42 4.405h-1.09l-1.85-5.74h1.125l1.275 4.335h.01l1.42-4.335h1.115l1.42 4.335h.01l1.265-4.335h1.1zm1.995-1.98c0 .21-.075.39-.225.54-.15.15-.33.22-.54.22a.752.752 0 0 1-.54-.22.736.736 0 0 1-.225-.54c0-.21.075-.39.225-.54.15-.15.33-.225.54-.225.21 0 .39.075.54.225.15.15.225.33.225.54zm-.225 1.98v5.74h-1.08v-5.74h1.08zm3.455 5.84c-.47 0-.86-.145-1.165-.435-.31-.29-.465-.69-.475-1.205v-3.21h-1.01v-.985h1.01v-1.76h1.08v1.76h1.405v.985h-1.405v2.86c0 .385.075.64.225.78.15.135.315.205.505.205.085 0 .17-.01.25-.03.08-.02.16-.045.23-.075l.34.96c-.29.095-.615.15-.99.15zm1.72-8.485h1.08v2.65l-.045.795h.045c.165-.28.415-.515.755-.705.34-.19.695-.28 1.06-.28.705 0 1.245.2 1.625.605.38.4.57.975.57 1.715v3.61h-1.08v-3.4c0-1.03-.455-1.545-1.37-1.545-.44 0-.805.18-1.105.545-.3.365-.45.785-.45 1.27v3.13h-1.08v-8.39h-.005z" fill="#5F6368"/><path d="M37.25 10.15c.017.816.08 1.63.189 2.44.519 3.5 2.483 7.464 7.868 10.242a1.511 1.511 0 0 0 1.386 0c5.385-2.778 7.35-6.743 7.868-10.243.11-.809.172-1.623.189-2.439V5.317a1.8 1.8 0 0 0-1.187-1.693l-6.95-2.516a1.8 1.8 0 0 0-1.226 0l-6.95 2.516a1.8 1.8 0 0 0-1.187 1.693v4.833z" fill="#1967D2"/><mask id="a" style="mask-type:alpha" maskUnits="userSpaceOnUse" x="37" y="1" width="18" height="22"><path d="M37.25 10.15c.017.816.08 1.63.189 2.44.519 3.5 2.483 7.464 7.868 10.242a1.511 1.511 0 0 0 1.386 0c5.385-2.778 7.35-6.743 7.868-10.243.11-.809.172-1.623.189-2.439V5.317a1.8 1.8 0 0 0-1.187-1.693l-6.95-2.516a1.8 1.8 0 0 0-1.226 0l-6.95 2.516a1.8 1.8 0 0 0-1.187 1.693v4.833z" fill="#1967D2"/></mask><g mask="url(#a)"><path d="M46 0H34v24h12V0z" fill="#185ABC"/></g><path d="M46.1 16c-2.76 0-5-2.24-5-5s2.24-5 5-5c1.35 0 2.48.5 3.35 1.3l-1.32 1.27c-.38-.36-1.04-.78-2.03-.78-1.74 0-3.15 1.44-3.15 3.21s1.42 3.21 3.15 3.21c2.01 0 2.84-1.45 2.92-2.41H46v-1.71h4.78c.07.31.12.61.12 1.02 0 2.86-1.91 4.89-4.8 4.89z" fill="#E8F0FE"/><mask id="b" style="mask-type:alpha" maskUnits="userSpaceOnUse" x="41" y="6" width="10" height="10"><path d="M46.1 16c-2.76 0-5-2.24-5-5s2.24-5 5-5c1.35 0 2.48.5 3.35 1.3l-1.32 1.27c-.38-.36-1.04-.78-2.03-.78-1.74 0-3.15 1.44-3.15 3.21s1.42 3.21 3.15 3.21c2.01 0 2.84-1.45 2.92-2.41H46v-1.71h4.78c.07.31.12.61.12 1.02 0 2.86-1.91 4.89-4.8 4.89z" fill="#F1F3F4"/></mask><g mask="url(#b)"><path fill="#D2E3FC" d="M40 5h6v12h-6z"/></g></svg>