<svg width="360" height="128" viewBox="0 0 360 128" fill="none" xmlns="http://www.w3.org/2000/svg"><g clip-path="url(#a)"><path d="M180 114h-24v4h24v-4z" fill="url(#b)"/><path d="M145 66.6c.066 3.264.318 6.522.756 9.758 2.074 14 9.934 29.858 31.474 40.97a6.053 6.053 0 0 0 5.54 0c21.542-11.114 29.4-26.972 31.474-40.972.438-3.235.69-6.492.756-9.756V47.266a7.205 7.205 0 0 0-4.748-6.77l-27.8-10.066a7.2 7.2 0 0 0-4.904 0l-27.8 10.066a7.204 7.204 0 0 0-4.748 6.77V66.6z" fill="#1967D2"/><mask id="c" style="mask-type:alpha" maskUnits="userSpaceOnUse" x="145" y="29" width="70" height="89"><path d="M145 66.6c.066 3.264.318 6.522.756 9.758 2.074 14 9.934 29.858 31.474 40.97a6.053 6.053 0 0 0 5.54 0c21.542-11.114 29.4-26.972 31.474-40.972.438-3.235.69-6.492.756-9.756V47.266a7.205 7.205 0 0 0-4.748-6.77l-27.8-10.066a7.2 7.2 0 0 0-4.904 0l-27.8 10.066a7.204 7.204 0 0 0-4.748 6.77V66.6z" fill="#1967D2"/></mask><g mask="url(#c)"><path d="M180 28h-44v92h44V28z" fill="#185ABC"/></g><path d="M180 73.636h11.462c-.82 4.782-4.954 8.288-11.032 8.288-6.68 0-12.094-5.646-12.094-12.324s5.414-12.324 12.094-12.324c3 0 5.7 1.034 7.826 3.058l5.82-5.822c-3.534-3.29-8.144-5.312-13.646-5.312a20.401 20.401 0 0 0-14.425 34.825A20.401 20.401 0 0 0 180.43 90c11.782 0 19.54-8.282 19.54-19.936a23.99 23.99 0 0 0-.38-4.288H180v7.86z" fill="#E8F0FE"/><mask id="d" style="mask-type:alpha" maskUnits="userSpaceOnUse" x="160" y="49" width="40" height="41"><path d="M180 73.636h11.462c-.82 4.782-4.954 8.288-11.032 8.288-6.68 0-12.094-5.646-12.094-12.324s5.414-12.324 12.094-12.324c3 0 5.7 1.034 7.826 3.058l5.82-5.822c-3.534-3.29-8.144-5.312-13.646-5.312a20.401 20.401 0 0 0-14.425 34.825A20.401 20.401 0 0 0 180.43 90c11.782 0 19.54-8.282 19.54-19.936a23.99 23.99 0 0 0-.38-4.288H180v7.86z" fill="#E8F0FE"/></mask><g mask="url(#d)"><path d="M180 48.138h-20.4v42.926H180V48.138z" fill="#D2E3FC"/></g><path d="M304 100h-23v4h23v-4z" fill="url(#e)"/><path d="M257 100h-23v4h23v-4z" fill="url(#f)"/><path d="M48 100H14v4h34v-4z" fill="url(#g)"/><path d="M81 100H63v4h18v-4z" fill="url(#h)"/><path d="M54.058 15.696a5 5 0 0 1 6.83-1.83l27.713 16a5 5 0 0 1 1.83 6.83l-37 64.086a5 5 0 0 1-6.83 1.83l-27.713-16a5 5 0 0 1-1.83-6.83l37-64.086z" fill="#fff" stroke="#E8EAED" stroke-width="2"/><path fill="#F8F9FA" stroke="#E8EAED" stroke-width="2" d="M51.558 20.026l36.373 21-32.5 56.292-36.373-21z"/><rect x="66.682" y="21.83" width="14" height="2" rx="1" transform="rotate(30 66.682 21.83)" fill="#E8EAED"/><circle cx="306.081" cy="67.081" r="36.081" fill="#fff" stroke="#E8EAED" stroke-width="2"/><mask id="i" style="mask-type:alpha" maskUnits="userSpaceOnUse" x="269" y="30" width="75" height="75"><path d="M343.161 67.082c0 20.479-16.601 37.08-37.08 37.08S269 87.56 269 67.082C269 46.602 285.602 30 306.081 30c20.479 0 37.08 16.601 37.08 37.08z" fill="#CEEAD6"/></mask><g mask="url(#i)" fill="#F8F9FA" stroke="#E8EAED" stroke-width="2"><path d="M262.585 53.857c1.056-3.272 2.305-5.737 3.304-7.003l.318-.334c1.01-1.07 3.429-3.63 6.4-5.536 3.468-2.225 7.186-3.256 10.231-.698 1.376 1.156 1.664 2.825 1.139 5.191-.517 2.334-1.764 5.044-3.132 8.016l-.106.23c-1.383 3.007-2.855 6.245-3.583 9.372-.731 3.139-.748 6.32.954 9.12a34.217 34.217 0 0 1 4.137 10.384c.744 3.458.793 6.593.164 8.829-.313 1.111-.778 1.946-1.353 2.502-.558.541-1.263.864-2.173.901-1.903.076-4.8-1.103-8.836-4.597-7.845-6.791-9.977-16.252-9.567-24.806a45.333 45.333 0 0 1 2.103-11.571zM311.43 47.77c-1.039-.444-1.661-1.024-2.031-1.634-.375-.618-.535-1.338-.528-2.118.014-1.55.687-3.194 1.346-4.268.446-.434 2.227-1.968 4.687-3.621 2.6-1.748 5.852-3.554 8.972-4.34 2.975-.748 6.333-.04 9.583 1.436 2.854 1.298 5.534 3.15 7.643 4.952-.984 1.05-1.553 2.19-1.938 3.298a21.354 21.354 0 0 0-.593 2.12c-.141.579-.266 1.092-.424 1.572-.331 1.002-.762 1.718-1.607 2.21-.894.522-2.395.878-5.058.767-4.628-.192-7.946.144-10.613.414-.557.056-1.085.11-1.591.155-2.9.26-5.053.249-7.848-.943zM288.129 100.653c-.934-.629-1.638-1.195-2.095-1.627.423-.744 1.138-1.712 2.101-2.763a26.161 26.161 0 0 1 4.484-3.883c3.504-2.375 7.33-3.562 10.388-1.921 4.905 2.632 9.172 1.31 12.756-.619 1.147-.617 2.282-1.33 3.339-1.994a91.56 91.56 0 0 1 1.583-.98c1.529-.915 2.826-1.551 3.991-1.713 2.006-.279 4.501.111 6.87.934 1.969.684 3.759 1.635 5.03 2.648-4.877 5.435-15.605 14.45-30.24 16.701-4.733.728-9.499-.457-13.342-2.133a31.003 31.003 0 0 1-4.865-2.65z"/></g><circle cx="306.081" cy="67.081" r="36.081" stroke="#E8EAED" stroke-width="2"/><circle cx="81" cy="87" r="16" fill="#fff" stroke="#E8EAED" stroke-width="2"/><path fill-rule="evenodd" clip-rule="evenodd" d="M86.71 82.71L81 77h-1v7.59L75.41 80 74 81.41 79.59 87 74 92.59 75.41 94 80 89.41V97h1l5.71-5.71-4.3-4.29 4.3-4.29zM82 80.83l1.88 1.88L82 84.59v-3.76zm0 12.34l1.88-1.88L82 89.41v3.76z" fill="#DADCE0"/><rect x="23" y="31" width="34" height="34" rx="5" fill="#fff" stroke="#E8EAED" stroke-width="2"/><path d="M40.09 44.5C39.11 43 37.43 42 35.5 42c-3.04 0-5.5 2.46-5.5 5.5s2.46 5.5 5.5 5.5c1.93 0 3.61-1 4.59-2.5H42v3h6v-3h2v-6h-9.91zm7.91 4h-2v3h-2v-3h-5.16A3.495 3.495 0 0 1 35.5 51c-1.93 0-3.5-1.57-3.5-3.5s1.57-3.5 3.5-3.5c1.58 0 2.9 1.06 3.34 2.5H48v2z" fill="#DADCE0"/><path d="M35.5 49a1.5 1.5 0 1 0 0-3 1.5 1.5 0 0 0 0 3z" fill="#DADCE0"/><rect x="264" y="14" width="34" height="34" rx="5" fill="#fff" stroke="#E8EAED" stroke-width="2"/><path fill-rule="evenodd" clip-rule="evenodd" d="M286 27h1c1.1 0 2 .9 2 2v10c0 1.1-.9 2-2 2h-12c-1.1 0-2-.9-2-2V29c0-1.1.9-2 2-2h1v-2c0-2.76 2.24-5 5-5s5 2.24 5 5v2zm-5-5c-1.66 0-3 1.34-3 3v2h6v-2c0-1.66-1.34-3-3-3zm-6 17V29h12v10h-12zm8-5c0 1.1-.9 2-2 2s-2-.9-2-2 .9-2 2-2 2 .9 2 2z" fill="#E8EAED"/><path fill-rule="evenodd" clip-rule="evenodd" d="M308.111 51.937a.999.999 0 0 0-.483.592l-2.174 7.21a1 1 0 0 0 .077.762l3.551 6.617c.126.235.34.41.595.486l7.195 2.152c.254.076.528.048.762-.078l2.935-1.583a1 1 0 0 1 1.107.105l1.505 1.228a1 1 0 0 0 1.407-.142l3.341-4.094a1 1 0 0 0-.143-1.407l-1.505-1.228a1.001 1.001 0 0 1-.326-1.064l.963-3.193a1 1 0 0 0-.076-.761l-3.552-6.618a1.002 1.002 0 0 0-.594-.485l-7.196-2.152a.999.999 0 0 0-.761.078l-6.628 3.575z" fill="#fff"/><path d="M307.628 52.529l-.957-.289.957.289zm.483-.592l-.475-.88.475.88zm-2.657 7.802l.958.289-.958-.289zm.077.762l-.882.473.882-.473zm3.551 6.617l.881-.472-.881.472zm.595.486l-.287.958.287-.958zm7.195 2.152l.287-.958-.287.958zm.762-.078l.474.88-.474-.88zm9.284-11.378l.958.29-.958-.29zm-.076-.761l-.881.473.881-.473zm-3.552-6.618l.881-.473-.881.473zm-.594-.485l.286-.958-.286.958zm-7.196-2.152l.287-.958-.287.958zm-.761.078l-.475-.88.475.88zm11.216 13.131l.958.29-.958-.29zm1.974 3.7l.774.632-.774-.633zm-4.748 4.236l-.632.774.632-.775zm1.407-.143l-.775-.632.775.632zm-4.019-1.191l-.475-.88.475.88zm-11.984-15.277l-.949-1.76a1.995 1.995 0 0 0-.965 1.182l1.914.578zm-2.173 7.21l2.173-7.21-1.914-.578-2.174 7.21 1.915.578zm0 0l-1.915-.577a2.004 2.004 0 0 0 .152 1.523l1.763-.946zm3.551 6.618l-3.551-6.618-1.763.946 3.552 6.617 1.762-.945zm0 0l-1.762.945c.252.47.68.818 1.189.97l.573-1.915zm7.196 2.152l-7.196-2.152-.573 1.916 7.196 2.152.573-1.916zm0 0l-.573 1.916a1.998 1.998 0 0 0 1.522-.156l-.949-1.76zm2.935-1.583l-2.935 1.583.949 1.76 2.935-1.583-.949-1.76zm3.719 1.439l-1.505-1.229-1.265 1.55 1.506 1.228 1.264-1.55zm3.341-4.094l-3.341 4.094 1.55 1.264 3.34-4.093-1.549-1.265zm-1.506-1.228l1.506 1.228 1.264-1.55-1.505-1.228-1.265 1.55zm.313-5.32l-.963 3.193 1.915.577.963-3.193-1.915-.577zm0 0l1.915.577a2 2 0 0 0-.153-1.523l-1.762.946zm-3.552-6.618l3.552 6.618 1.762-.946-3.552-6.618-1.762.946zm0 0l1.762-.946a1.997 1.997 0 0 0-1.189-.97l-.573 1.916zm-7.195-2.152l7.195 2.152.573-1.916-7.195-2.152-.573 1.916zm0 0l.573-1.916a2.001 2.001 0 0 0-1.523.155l.95 1.76zm-6.629 3.576l6.629-3.576-.95-1.76-6.628 3.575.949 1.76zm18.328 8.964l-1.915-.577a2 2 0 0 0 .65 2.127l1.265-1.55zm1.79 4.043a2 2 0 0 0-.285-2.814l-1.264 1.55 1.549 1.264zm-6.154 4.378a2 2 0 0 0 2.814-.285l-1.55-1.264-1.264 1.55zm-1.506-1.228l1.265-1.55a2 2 0 0 0-2.214-.21l.949 1.76z" fill="#E8EAED"/><path d="M331.623 71c15.028 12.18 20.777 25.017 16.448 28.795" stroke="#E8EAED" stroke-width="2" stroke-linecap="round"/><circle cx="255" cy="86" r="17" fill="#fff" stroke="#E8EAED" stroke-width="2"/><path d="M255 76c-5.52 0-10 4.48-10 10s4.48 10 10 10 10-4.48 10-10-4.48-10-10-10zm-4.93 16.28c.43-.9 3.05-1.78 4.93-1.78s4.51.88 4.93 1.78A7.893 7.893 0 0 1 255 94c-1.86 0-3.57-.64-4.93-1.72zm11.29-1.45c-1.43-1.74-4.9-2.33-6.36-2.33s-4.93.59-6.36 2.33A7.95 7.95 0 0 1 247 86c0-4.41 3.59-8 8-8s8 3.59 8 8c0 1.82-.62 3.49-1.64 4.83zM255 80c-1.94 0-3.5 1.56-3.5 3.5s1.56 3.5 3.5 3.5 3.5-1.56 3.5-3.5-1.56-3.5-3.5-3.5zm0 5c-.83 0-1.5-.67-1.5-1.5s.67-1.5 1.5-1.5 1.5.67 1.5 1.5-.67 1.5-1.5 1.5z" fill="#E8EAED"/></g><defs><linearGradient id="b" x1="156" y1="116" x2="180" y2="116" gradientUnits="userSpaceOnUse"><stop stop-color="#BDC1C6" stop-opacity="0"/><stop offset="1" stop-color="#BDC1C6"/></linearGradient><linearGradient id="e" x1="281" y1="102" x2="304" y2="102" gradientUnits="userSpaceOnUse"><stop stop-color="#BDC1C6" stop-opacity="0"/><stop offset="1" stop-color="#BDC1C6"/></linearGradient><linearGradient id="f" x1="234" y1="102" x2="257" y2="102" gradientUnits="userSpaceOnUse"><stop stop-color="#BDC1C6" stop-opacity="0"/><stop offset="1" stop-color="#BDC1C6"/></linearGradient><linearGradient id="g" x1="14" y1="102" x2="48" y2="102" gradientUnits="userSpaceOnUse"><stop stop-color="#BDC1C6" stop-opacity="0"/><stop offset="1" stop-color="#BDC1C6"/></linearGradient><linearGradient id="h" x1="63" y1="102" x2="81" y2="102" gradientUnits="userSpaceOnUse"><stop stop-color="#BDC1C6" stop-opacity="0"/><stop offset="1" stop-color="#BDC1C6"/></linearGradient><clipPath id="a"><path fill="#fff" d="M0 0h360v128H0z"/></clipPath></defs></svg>